# xmcd
#
# Track frame offsets:
#	150
#	17165
#	33090
#	49540
#	65010
#	79955
#	95250
#	111155
#	124465
#	139425
#
# Disc length: 2178
#
# Revision: 1
# Processed by: cddbd v1.5.1PL0 Copyright (c) Steve Scherf et al.
# Submitted via: Feurio! 1.65 - http://www.feurio.com
# Normalized: r0:DSETVAR1
#
DISCID=8908800a
DTITLE=Various Artist - Slow Groove Love Jams Of The 70's
DYEAR=1900
DGENRE=blues
TTITLE0=Chi-Lites - Oh Girl
TTITLE1=Manhattans - Kiss And Say Goodbye
TTITLE2=Dorothy Moore - Misty Blue
TTITLE3=Harold Melvin and Blue Notes - If You Don't Know Me By Now
TTITLE4=Commodores - Just To Be Close To You
TTITLE5=Johnny Bristol - Hang On In There
TTITLE6=Natural 4 - Can This Be Real
TTITLE7=Stylistics - You Are Everything
TTITLE8=Chaka Khan and Rufus - Sweet Thing
TTITLE9=Tyrone Davis - It's So Good (To Be Home)
EXTD=
EXTT0=
EXTT1=
EXTT2=
EXTT3=
EXTT4=
EXTT5=
EXTT6=
EXTT7=
EXTT8=
EXTT9=
PLAYORDER=
